<svg width="150" height="80" viewBox="0 0 150 80" fill="none" xmlns="http://www.w3.org/2000/svg">
<rect y="18.3555" width="9.44056" height="53.4965" fill="white"/>
<rect y="49.3" width="8.39161" height="141.608" transform="rotate(-90 0 49.3)" fill="white"/>
<path d="M34.6167 26.747V18.3554H57.6936L61.8894 28.8449V29.3694L60.8405 28.3204L58.7426 27.2715L56.6447 26.747H34.6167Z" fill="white"/>
<path d="M34.6167 26.747V18.3554H57.6936L61.8894 28.8449V29.3694L60.8405 28.3204L58.7426 27.2715L56.6447 26.747H34.6167Z" fill="white"/>
<path d="M52.9055 49.1375L61.5509 44.5407L75.6931 71.6352L64.8002 71.5082L52.9055 49.1375Z" fill="white"/>
<rect x="34.6167" y="18.3555" width="8.39161" height="53.4965" fill="white"/>
<path d="M72.377 36.1877C72.377 44.5878 66.607 48.7751 59.7901 51.3811C51.6797 51.3811 62.4113 43.5385 62.9373 35.6632C63.9848 27.8043 51.9217 24.1248 57.694 18.3555C65.8045 18.3555 72.8932 27.2798 72.377 36.1877Z" fill="white"/>
<path d="M124.375 36.8583H114.414C114.13 35.2248 113.606 33.7777 112.842 32.517C112.079 31.2386 111.129 30.1555 109.993 29.2678C108.856 28.38 107.56 27.7141 106.104 27.2702C104.666 26.8086 103.112 26.5778 101.443 26.5778C98.4781 26.5778 95.8503 27.3235 93.5598 28.815C91.2693 30.2887 89.476 32.4549 88.1798 35.3136C86.8837 38.1545 86.2356 41.6257 86.2356 45.7273C86.2356 49.8999 86.8837 53.4155 88.1798 56.2741C89.4937 59.1151 91.2871 61.2635 93.5598 62.7195C95.8503 64.1577 98.4692 64.8768 101.417 64.8768C103.05 64.8768 104.577 64.6637 105.998 64.2376C107.436 63.7937 108.723 63.1456 109.86 62.2933C111.014 61.4411 111.981 60.3935 112.763 59.1506C113.562 57.9077 114.112 56.4872 114.414 54.8892L124.375 54.9425C124.002 57.5348 123.194 59.9673 121.951 62.2401C120.726 64.5128 119.119 66.5192 117.13 68.2592C115.142 69.9815 112.816 71.331 110.152 72.3075C107.489 73.2663 104.533 73.7457 101.284 73.7457C96.4895 73.7457 92.2104 72.636 88.4462 70.4165C84.6819 68.1971 81.7167 64.9922 79.5506 60.8018C77.3844 56.6115 76.3013 51.5866 76.3013 45.7273C76.3013 39.8501 77.3932 34.8253 79.5772 30.6527C81.7611 26.4624 84.7352 23.2575 88.4994 21.038C92.2636 18.8185 96.525 17.7088 101.284 17.7088C104.32 17.7088 107.143 18.1349 109.753 18.9872C112.363 19.8395 114.689 21.0913 116.731 22.7425C118.773 24.3761 120.451 26.3825 121.765 28.7617C123.096 31.1232 123.966 33.8221 124.375 36.8583Z" fill="white"/>
<path d="M150 45.6292L131.906 66.0686V25.1898L150 45.6292Z" fill="white"/>
</svg>
